<svg width="26" height="27" viewBox="0 0 26 27" fill="none" xmlns="http://www.w3.org/2000/svg">
<circle cx="13" cy="13" r="12.5" fill="#FEC25C" stroke="#443F36"/>
<circle cx="13" cy="13" r="10" fill="#E69611"/>
<path d="M11.1289 5V13H9.4375V6.60547H9.39063L7.55859 7.75391V6.25391L9.53906 5H11.1289Z" fill="#F8EBD3"/>
<path d="M12.6484 21V19.7812L15.4961 17.1445C15.7383 16.9102 15.9414 16.6992 16.1055 16.5117C16.2721 16.3242 16.3984 16.1406 16.4844 15.9609C16.5703 15.7786 16.6133 15.582 16.6133 15.3711C16.6133 15.1367 16.5599 14.9349 16.4531 14.7656C16.3464 14.5937 16.2005 14.4622 16.0156 14.3711C15.8307 14.2773 15.6211 14.2305 15.3867 14.2305C15.1419 14.2305 14.9284 14.2799 14.7461 14.3789C14.5638 14.4779 14.4232 14.6198 14.3242 14.8047C14.2253 14.9896 14.1758 15.2096 14.1758 15.4648H12.5703C12.5703 14.9414 12.6888 14.487 12.9258 14.1016C13.1628 13.7161 13.4948 13.418 13.9219 13.207C14.349 12.9961 14.8411 12.8906 15.3984 12.8906C15.9714 12.8906 16.4701 12.9922 16.8945 13.1953C17.3216 13.3958 17.6536 13.6745 17.8906 14.0312C18.1276 14.388 18.2461 14.7969 18.2461 15.2578C18.2461 15.5599 18.1862 15.8581 18.0664 16.1523C17.9492 16.4466 17.7396 16.7734 17.4375 17.1328C17.1354 17.4896 16.7096 17.918 16.1602 18.418L14.9922 19.5625V19.6172H18.3516V21H12.6484Z" fill="white"/>
<line x1="7.64645" y1="17.6464" x2="17.6464" y2="7.64645" stroke="white"/>
</svg>
