<svg width="26" height="26" viewBox="0 0 26 26" fill="none" xmlns="http://www.w3.org/2000/svg">
<circle cx="13" cy="13" r="12.5" fill="#4A4A4A" stroke="#443F36"/>
<circle cx="13" cy="13" r="10" fill="#1E1E1E"/>
<path d="M7.66531 10.4545L8.86701 12.7429L10.0985 10.4545H11.9608L10.0645 13.7273L12.0119 17H10.1582L8.86701 14.7372L7.59712 17H5.72212L7.66531 13.7273L5.79031 10.4545H7.66531ZM16.4437 17.1918C15.7108 17.1889 15.0801 17.0085 14.5517 16.6506C14.0261 16.2926 13.6213 15.7741 13.3372 15.0952C13.0559 14.4162 12.9167 13.5994 12.9196 12.6449C12.9196 11.6932 13.0602 10.8821 13.3414 10.2116C13.6255 9.54119 14.0304 9.03125 14.5559 8.68182C15.0843 8.32955 15.7136 8.15341 16.4437 8.15341C17.1738 8.15341 17.8017 8.32955 18.3272 8.68182C18.8556 9.03409 19.2619 9.54545 19.546 10.2159C19.8301 10.8835 19.9707 11.6932 19.9679 12.6449C19.9679 13.6023 19.8258 14.4205 19.5417 15.0994C19.2605 15.7784 18.8571 16.2969 18.3315 16.6548C17.8059 17.0128 17.1767 17.1918 16.4437 17.1918ZM16.4437 15.6619C16.9437 15.6619 17.3429 15.4105 17.6412 14.9077C17.9395 14.4048 18.0872 13.6506 18.0843 12.6449C18.0843 11.983 18.0162 11.4318 17.8798 10.9915C17.7463 10.5511 17.5559 10.2202 17.3088 9.99858C17.0645 9.77699 16.7761 9.66619 16.4437 9.66619C15.9466 9.66619 15.5488 9.91477 15.2505 10.4119C14.9522 10.9091 14.8017 11.6534 14.7988 12.6449C14.7988 13.3153 14.8656 13.875 14.9991 14.3239C15.1355 14.7699 15.3272 15.1051 15.5744 15.3295C15.8216 15.5511 16.1113 15.6619 16.4437 15.6619Z" fill="white"/>
</svg>
