<svg width="26" height="26" viewBox="0 0 26 26" fill="none" xmlns="http://www.w3.org/2000/svg">
<circle cx="13" cy="13" r="12.5" fill="#8BCF69" stroke="#443F36"/>
<circle cx="13" cy="13" r="10" fill="#62B43A"/>
<path d="M8.51687 10.4545L9.71857 12.7429L10.9501 10.4545H12.8123L10.916 13.7273L12.8635 17H11.0098L9.71857 14.7372L8.44869 17H6.57369L8.51687 13.7273L6.64187 10.4545H8.51687ZM13.8734 17V15.6705L16.9799 12.794C17.2441 12.5384 17.4657 12.3082 17.6447 12.1037C17.8265 11.8991 17.9643 11.6989 18.0581 11.5028C18.1518 11.304 18.1987 11.0895 18.1987 10.8594C18.1987 10.6037 18.1404 10.3835 18.024 10.1989C17.9075 10.0114 17.7484 9.8679 17.5467 9.76847C17.345 9.66619 17.1163 9.61506 16.8606 9.61506C16.5936 9.61506 16.3606 9.66903 16.1618 9.77699C15.9629 9.88494 15.8095 10.0398 15.7015 10.2415C15.5936 10.4432 15.5396 10.6832 15.5396 10.9616H13.7882C13.7882 10.3906 13.9174 9.89489 14.176 9.47443C14.4345 9.05398 14.7967 8.72869 15.2626 8.49858C15.7285 8.26847 16.2654 8.15341 16.8734 8.15341C17.4984 8.15341 18.0424 8.2642 18.5055 8.4858C18.9714 8.70455 19.3336 9.00852 19.5922 9.39773C19.8507 9.78693 19.9799 10.233 19.9799 10.7358C19.9799 11.0653 19.9146 11.3906 19.7839 11.7116C19.6561 12.0327 19.4274 12.3892 19.0978 12.7812C18.7683 13.1705 18.3038 13.6378 17.7044 14.1832L16.4302 15.4318V15.4915H20.095V17H13.8734Z" fill="white"/>
</svg>
